<svg width="16" height="16" viewBox="0 0 16 16" fill="none" xmlns="http://www.w3.org/2000/svg">
<path fill-rule="evenodd" clip-rule="evenodd" d="M11.05 1C11.05 0.585786 11.3858 0.25 11.8 0.25H15C15.4142 0.25 15.75 0.585786 15.75 1V4.2C15.75 4.61421 15.4142 4.95 15 4.95C14.5858 4.95 14.25 4.61421 14.25 4.2V2.81066L9.05 8.01066L5.55 4.51066L1.53033 8.53033C1.23744 8.82322 0.762563 8.82322 0.46967 8.53033C0.176777 8.23744 0.176777 7.76256 0.46967 7.46967L5.55 2.38934L9.05 5.88934L13.1893 1.75H11.8C11.3858 1.75 11.05 1.41421 11.05 1ZM14.25 15V8C14.25 7.58579 14.5858 7.25 15 7.25C15.4142 7.25 15.75 7.58579 15.75 8V15C15.75 15.4142 15.4142 15.75 15 15.75C14.5858 15.75 14.25 15.4142 14.25 15ZM4.5 9.25C4.91421 9.25 5.25 9.58579 5.25 10V15C5.25 15.4142 4.91421 15.75 4.5 15.75C4.08579 15.75 3.75 15.4142 3.75 15L3.75 10C3.75 9.58579 4.08579 9.25 4.5 9.25ZM11.5 9.75C11.9142 9.75 12.25 10.0858 12.25 10.5V15C12.25 15.4142 11.9142 15.75 11.5 15.75C11.0858 15.75 10.75 15.4142 10.75 15V10.5C10.75 10.0858 11.0858 9.75 11.5 9.75ZM8 11.25C8.41421 11.25 8.75 11.5858 8.75 12V15C8.75 15.4142 8.41421 15.75 8 15.75C7.58579 15.75 7.25 15.4142 7.25 15V12C7.25 11.5858 7.58579 11.25 8 11.25ZM1 12.25C1.41421 12.25 1.75 12.5858 1.75 13V15C1.75 15.4142 1.41421 15.75 1 15.75C0.585787 15.75 0.25 15.4142 0.25 15L0.25 13C0.25 12.5858 0.585786 12.25 1 12.25Z" fill="white" fill-opacity="0.65"/>
</svg>
