<svg width="16" height="16" viewBox="0 0 16 16" fill="none" xmlns="http://www.w3.org/2000/svg">
<path fill-rule="evenodd" clip-rule="evenodd" d="M3.33341 3.41406C3.37944 3.41406 3.41675 3.37675 3.41675 3.33073C3.41675 3.28471 3.37944 3.2474 3.33341 3.2474C3.28739 3.2474 3.25008 3.28471 3.25008 3.33073C3.25008 3.37675 3.28739 3.41406 3.33341 3.41406ZM1.91675 3.33073C1.91675 2.54833 2.55101 1.91406 3.33341 1.91406C4.11582 1.91406 4.75008 2.54833 4.75008 3.33073C4.75008 4.11313 4.11582 4.7474 3.33341 4.7474C2.55101 4.7474 1.91675 4.11313 1.91675 3.33073ZM8.00008 3.41406C8.04611 3.41406 8.08342 3.37675 8.08342 3.33073C8.08342 3.28471 8.04611 3.2474 8.00008 3.2474C7.95406 3.2474 7.91675 3.28471 7.91675 3.33073C7.91675 3.37675 7.95406 3.41406 8.00008 3.41406ZM6.58342 3.33073C6.58342 2.54833 7.21768 1.91406 8.00008 1.91406C8.78249 1.91406 9.41675 2.54833 9.41675 3.33073C9.41675 4.11313 8.78249 4.7474 8.00008 4.7474C7.21768 4.7474 6.58342 4.11313 6.58342 3.33073ZM12.6667 3.41406C12.7128 3.41406 12.7501 3.37675 12.7501 3.33073C12.7501 3.28471 12.7128 3.2474 12.6667 3.2474C12.6207 3.2474 12.5834 3.28471 12.5834 3.33073C12.5834 3.37675 12.6207 3.41406 12.6667 3.41406ZM11.2501 3.33073C11.2501 2.54833 11.8843 1.91406 12.6667 1.91406C13.4492 1.91406 14.0834 2.54833 14.0834 3.33073C14.0834 4.11313 13.4492 4.7474 12.6667 4.7474C11.8843 4.7474 11.2501 4.11313 11.2501 3.33073ZM3.33341 8.08073C3.37944 8.08073 3.41675 8.04342 3.41675 7.9974C3.41675 7.95137 3.37944 7.91406 3.33341 7.91406C3.28739 7.91406 3.25008 7.95137 3.25008 7.9974C3.25008 8.04342 3.28739 8.08073 3.33341 8.08073ZM1.91675 7.9974C1.91675 7.21499 2.55101 6.58073 3.33341 6.58073C4.11582 6.58073 4.75008 7.21499 4.75008 7.9974C4.75008 8.7798 4.11582 9.41406 3.33341 9.41406C2.55101 9.41406 1.91675 8.7798 1.91675 7.9974ZM8.00008 8.08073C8.04611 8.08073 8.08342 8.04342 8.08342 7.9974C8.08342 7.95137 8.04611 7.91406 8.00008 7.91406C7.95406 7.91406 7.91675 7.95137 7.91675 7.9974C7.91675 8.04342 7.95406 8.08073 8.00008 8.08073ZM6.58342 7.9974C6.58342 7.21499 7.21768 6.58073 8.00008 6.58073C8.78249 6.58073 9.41675 7.21499 9.41675 7.9974C9.41675 8.7798 8.78249 9.41406 8.00008 9.41406C7.21768 9.41406 6.58342 8.7798 6.58342 7.9974ZM12.6667 8.08073C12.7128 8.08073 12.7501 8.04342 12.7501 7.9974C12.7501 7.95137 12.7128 7.91406 12.6667 7.91406C12.6207 7.91406 12.5834 7.95137 12.5834 7.9974C12.5834 8.04342 12.6207 8.08073 12.6667 8.08073ZM11.2501 7.9974C11.2501 7.21499 11.8843 6.58073 12.6667 6.58073C13.4492 6.58073 14.0834 7.21499 14.0834 7.9974C14.0834 8.7798 13.4492 9.41406 12.6667 9.41406C11.8843 9.41406 11.2501 8.7798 11.2501 7.9974ZM3.33341 12.7474C3.37944 12.7474 3.41675 12.7101 3.41675 12.6641C3.41675 12.618 3.37944 12.5807 3.33341 12.5807C3.28739 12.5807 3.25008 12.618 3.25008 12.6641C3.25008 12.7101 3.28739 12.7474 3.33341 12.7474ZM1.91675 12.6641C1.91675 11.8817 2.55101 11.2474 3.33341 11.2474C4.11582 11.2474 4.75008 11.8817 4.75008 12.6641C4.75008 13.4465 4.11582 14.0807 3.33341 14.0807C2.55101 14.0807 1.91675 13.4465 1.91675 12.6641ZM8.00008 12.7474C8.04611 12.7474 8.08342 12.7101 8.08342 12.6641C8.08342 12.618 8.04611 12.5807 8.00008 12.5807C7.95406 12.5807 7.91675 12.618 7.91675 12.6641C7.91675 12.7101 7.95406 12.7474 8.00008 12.7474ZM6.58342 12.6641C6.58342 11.8817 7.21768 11.2474 8.00008 11.2474C8.78249 11.2474 9.41675 11.8817 9.41675 12.6641C9.41675 13.4465 8.78249 14.0807 8.00008 14.0807C7.21768 14.0807 6.58342 13.4465 6.58342 12.6641ZM12.6667 12.7474C12.7128 12.7474 12.7501 12.7101 12.7501 12.6641C12.7501 12.618 12.7128 12.5807 12.6667 12.5807C12.6207 12.5807 12.5834 12.618 12.5834 12.6641C12.5834 12.7101 12.6207 12.7474 12.6667 12.7474ZM11.2501 12.6641C11.2501 11.8817 11.8843 11.2474 12.6667 11.2474C13.4492 11.2474 14.0834 11.8817 14.0834 12.6641C14.0834 13.4465 13.4492 14.0807 12.6667 14.0807C11.8843 14.0807 11.2501 13.4465 11.2501 12.6641Z" fill="white" fill-opacity="0.65"/>
</svg>
