<svg width="16" height="16" viewBox="0 0 16 16" fill="none" xmlns="http://www.w3.org/2000/svg">
<path fill-rule="evenodd" clip-rule="evenodd" d="M7.3986 3.65155C6.75015 2.20431 5.05125 1.55677 3.60402 2.20523C2.15678 2.85369 1.50924 4.55258 2.1577 5.99982C2.80616 7.44705 4.50505 8.09459 5.95229 7.44613C7.39952 6.79768 8.04706 5.09878 7.3986 3.65155ZM8.67669 2.84781C7.62914 0.778918 5.1294 -0.121931 2.99067 0.83636C0.787428 1.82356 -0.19837 4.40992 0.788829 6.61316C1.77603 8.81641 4.36239 9.8022 6.56563 8.815C7.31075 8.48114 7.91662 7.96438 8.35402 7.3414C8.70892 7.87222 9.18806 8.28745 9.73375 8.56512C8.88268 9.44348 8.60428 10.7848 9.1349 11.9691C9.83046 13.5214 11.6527 14.216 13.2051 13.5204C14.7574 12.8249 15.452 11.0026 14.7565 9.45024C14.5148 8.91087 14.1371 8.47505 13.6819 8.16512C14.9579 7.14827 15.4371 5.36193 14.7392 3.80417C13.912 1.95824 11.7451 1.13231 9.89919 1.95941C9.41893 2.1746 9.00771 2.48048 8.67669 2.84781ZM13.3703 4.41752C12.8819 3.32759 11.6025 2.83992 10.5125 3.32828C9.4226 3.81664 8.93494 5.0961 9.4233 6.18603C9.91166 7.27596 11.1911 7.76363 12.281 7.27526C13.371 6.7869 13.8586 5.50745 13.3703 4.41752ZM13.3876 10.0636C13.0308 9.26724 12.0959 8.91093 11.2996 9.26775C10.5033 9.62456 10.147 10.5594 10.5038 11.3557C10.8606 12.1521 11.7954 12.5084 12.5917 12.1516C13.3881 11.7947 13.7444 10.8599 13.3876 10.0636ZM5.49999 11.5482C4.80964 11.5482 4.24999 12.1079 4.24999 12.7982C4.24999 13.4886 4.80964 14.0482 5.49999 14.0482C6.19035 14.0482 6.74999 13.4886 6.74999 12.7982C6.74999 12.1079 6.19035 11.5482 5.49999 11.5482ZM2.74999 12.7982C2.74999 11.2794 3.98121 10.0482 5.49999 10.0482C7.01878 10.0482 8.24999 11.2794 8.24999 12.7982C8.24999 14.317 7.01878 15.5482 5.49999 15.5482C3.98121 15.5482 2.74999 14.317 2.74999 12.7982Z" fill="white" fill-opacity="0.65"/>
</svg>
