<svg width="16" height="16" viewBox="0 0 16 16" fill="none" xmlns="http://www.w3.org/2000/svg">
<path fill-rule="evenodd" clip-rule="evenodd" d="M5.33333 0.585938C5.74755 0.585938 6.08333 0.921724 6.08333 1.33594V1.91927H9.91667V1.33594C9.91667 0.921724 10.2525 0.585938 10.6667 0.585938C11.0809 0.585938 11.4167 0.921724 11.4167 1.33594V1.91927H12.6667C13.2192 1.91927 13.7491 2.13876 14.1398 2.52946C14.5305 2.92017 14.75 3.45007 14.75 4.0026V11.3359C14.75 11.5348 14.671 11.7256 14.5303 11.8663L11.197 15.1996C11.0563 15.3403 10.8656 15.4193 10.6667 15.4193H3.33333C2.7808 15.4193 2.25089 15.1998 1.86019 14.8091C1.46949 14.4184 1.25 13.8885 1.25 13.3359V4.0026C1.25 3.45007 1.46949 2.92017 1.86019 2.52946C2.2509 2.13876 2.7808 1.91927 3.33333 1.91927H4.58333V1.33594C4.58333 0.921724 4.91912 0.585938 5.33333 0.585938ZM4.58333 3.41927H3.33333C3.17862 3.41927 3.03025 3.48073 2.92085 3.59013C2.81146 3.69952 2.75 3.84789 2.75 4.0026V5.91927H13.25V4.0026C13.25 3.84789 13.1885 3.69952 13.0791 3.59013C12.9697 3.48073 12.8214 3.41927 12.6667 3.41927H11.4167V4.0026C11.4167 4.41682 11.0809 4.7526 10.6667 4.7526C10.2525 4.7526 9.91667 4.41682 9.91667 4.0026V3.41927H6.08333V4.0026C6.08333 4.41682 5.74755 4.7526 5.33333 4.7526C4.91912 4.7526 4.58333 4.41682 4.58333 4.0026V3.41927ZM13.25 7.41927H2.75V13.3359C2.75 13.4906 2.81146 13.639 2.92085 13.7484C3.03025 13.8578 3.17862 13.9193 3.33333 13.9193H9.25V12.0026C9.25 11.4501 9.46949 10.9202 9.8602 10.5295C10.2509 10.1388 10.7808 9.91927 11.3333 9.91927H13.25V7.41927ZM12.856 11.4193H11.3333C11.1786 11.4193 11.0303 11.4807 10.9209 11.5901C10.8115 11.6995 10.75 11.8479 10.75 12.0026V13.5253L12.856 11.4193Z" fill="white" fill-opacity="0.65"/>
</svg>
