<svg width="16" height="16" viewBox="0 0 16 16" fill="none" xmlns="http://www.w3.org/2000/svg">
<path fill-rule="evenodd" clip-rule="evenodd" d="M15.1969 0.805628C15.4006 1.00936 15.4697 1.31178 15.3745 1.58372L10.7078 14.9171C10.6062 15.2073 10.3378 15.4061 10.0305 15.4187C9.72324 15.4312 9.43946 15.2549 9.31456 14.9739L6.76505 9.2375L1.02865 6.68798C0.747641 6.56309 0.571344 6.27931 0.583879 5.97205C0.596415 5.66479 0.795243 5.39632 1.08549 5.29473L14.4188 0.628065C14.6908 0.532886 14.9932 0.6019 15.1969 0.805628ZM8.22782 8.83539L9.91697 12.636L12.873 4.19022L8.22782 8.83539ZM11.8123 3.12956L3.36656 6.08558L7.16716 7.77473L11.8123 3.12956Z" fill="white" fill-opacity="0.65"/>
</svg>
