<svg width="16" height="16" viewBox="0 0 16 16" fill="none" xmlns="http://www.w3.org/2000/svg">
<path fill-rule="evenodd" clip-rule="evenodd" d="M8.16366 1.83033C8.1048 1.88919 8.08333 1.95402 8.08333 2V8C8.08333 8.04598 8.1048 8.11081 8.16366 8.16967C8.22253 8.22853 8.28735 8.25 8.33333 8.25H13C13.046 8.25 13.1108 8.22853 13.1697 8.16967C13.2285 8.11081 13.25 8.04598 13.25 8V5.08333H12C11.4475 5.08333 10.9176 4.86384 10.5269 4.47314C10.1362 4.08244 9.91667 3.55253 9.91667 3V1.75H8.33333C8.28735 1.75 8.22253 1.77147 8.16366 1.83033ZM8.33333 0.25C7.38579 0.25 6.58333 1.05245 6.58333 2V8C6.58333 8.94755 7.38579 9.75 8.33333 9.75H13C13.9475 9.75 14.75 8.94755 14.75 8V3.66667C14.75 3.46775 14.671 3.27699 14.5303 3.13634L11.8637 0.46967C11.723 0.329018 11.5322 0.25 11.3333 0.25H8.33333ZM11.4167 2.14399L12.856 3.58333H12C11.8453 3.58333 11.6969 3.52188 11.5875 3.41248C11.4781 3.30308 11.4167 3.15471 11.4167 3V2.14399ZM4.66667 4.25C5.08088 4.25 5.41667 4.58579 5.41667 5V10.8128C5.42023 10.8182 5.42461 10.8244 5.42988 10.8313C5.44031 10.8448 5.45202 10.858 5.46366 10.8697C5.47531 10.8813 5.48852 10.893 5.50207 10.9034C5.50893 10.9087 5.51514 10.9131 5.52055 10.9167H10C10.4142 10.9167 10.75 11.2525 10.75 11.6667C10.75 12.0809 10.4142 12.4167 10 12.4167H5.46667C4.96739 12.4167 4.58502 12.1123 4.403 11.9303C4.22098 11.7483 3.91667 11.3659 3.91667 10.8667V5C3.91667 4.58579 4.25245 4.25 4.66667 4.25ZM2 6.91667C2.41421 6.91667 2.75 7.25245 2.75 7.66667V13.4794C2.75356 13.4849 2.75794 13.4911 2.76322 13.4979C2.77364 13.5115 2.78535 13.5247 2.797 13.5363C2.80864 13.548 2.82186 13.5597 2.83541 13.5701C2.84227 13.5754 2.84848 13.5798 2.85388 13.5833H7.33333C7.74755 13.5833 8.08333 13.9191 8.08333 14.3333C8.08333 14.7475 7.74755 15.0833 7.33333 15.0833H2.8C2.30072 15.0833 1.91835 14.779 1.73634 14.597C1.55432 14.415 1.25 14.0326 1.25 13.5333V7.66667C1.25 7.25245 1.58579 6.91667 2 6.91667Z" fill="white" fill-opacity="0.65"/>
</svg>
