<svg width="16" height="16" viewBox="0 0 16 16" fill="none" xmlns="http://www.w3.org/2000/svg">
<path fill-rule="evenodd" clip-rule="evenodd" d="M2.75516 3C2.76975 3.02859 2.81324 3.09289 2.93574 3.18943C3.14542 3.35468 3.49531 3.5363 3.99453 3.7027C4.98512 4.0329 6.40132 4.25 8 4.25C9.59868 4.25 11.0149 4.0329 12.0055 3.7027C12.5047 3.5363 12.8546 3.35468 13.0643 3.18943C13.1868 3.09289 13.2303 3.02859 13.2448 3C13.2303 2.97141 13.1868 2.90711 13.0643 2.81057C12.8546 2.64532 12.5047 2.4637 12.0055 2.2973C11.0149 1.9671 9.59868 1.75 8 1.75C6.40132 1.75 4.98512 1.9671 3.99453 2.2973C3.49531 2.4637 3.14542 2.64532 2.93574 2.81057C2.81324 2.90711 2.76975 2.97141 2.75516 3ZM13.25 4.81857C13.0105 4.93316 12.7514 5.03521 12.4798 5.12573C11.2988 5.51939 9.71503 5.75 8 5.75C6.28497 5.75 4.70117 5.51939 3.52019 5.12573C3.24865 5.03521 2.98949 4.93316 2.75 4.81857V12.3204C2.75773 12.34 2.7927 12.4064 2.92693 12.5144C3.1304 12.6781 3.47823 12.8639 3.99453 13.036C5.02218 13.3786 6.46358 13.5833 8 13.5833C9.53642 13.5833 10.9778 13.3786 12.0055 13.036C12.5218 12.8639 12.8696 12.6781 13.0731 12.5144C13.2073 12.4064 13.2423 12.34 13.25 12.3204V4.81857ZM13.2519 12.3143C13.252 12.3143 13.2518 12.3152 13.2513 12.317C13.2516 12.3152 13.2519 12.3143 13.2519 12.3143ZM2.74806 12.3143C2.74812 12.3143 2.74841 12.3152 2.74874 12.317C2.74817 12.3152 2.748 12.3143 2.74806 12.3143ZM14.75 3V12.3333C14.75 12.9191 14.4005 13.3716 14.0135 13.683C13.6196 14 13.0887 14.2561 12.4798 14.4591C11.257 14.8667 9.64618 15.0833 8 15.0833C6.35382 15.0833 4.74297 14.8667 3.52019 14.4591C2.91127 14.2561 2.38042 14 1.98652 13.683C1.59954 13.3716 1.25 12.9191 1.25 12.3333V3C1.25 2.39556 1.61818 1.93909 2.00728 1.63245C2.40483 1.31915 2.93362 1.0698 3.52019 0.874274C4.70117 0.480615 6.28497 0.25 8 0.25C9.71503 0.25 11.2988 0.480615 12.4798 0.874274C13.0664 1.0698 13.5952 1.31915 13.9927 1.63245C14.3818 1.93909 14.75 2.39556 14.75 3ZM13.2511 2.98553C13.2514 2.98387 13.2516 2.98305 13.2517 2.98306C13.2517 2.98306 13.2516 2.98389 13.2511 2.98553ZM2.74894 2.98558C2.74841 2.98391 2.74826 2.98306 2.74831 2.98306C2.74837 2.98305 2.74864 2.98389 2.74894 2.98558Z" fill="white" fill-opacity="0.65"/>
</svg>
