<svg width="16" height="16" viewBox="0 0 16 16" fill="none" xmlns="http://www.w3.org/2000/svg">
<path fill-rule="evenodd" clip-rule="evenodd" d="M7.75 1.75V2.25H8.25V1.75L7.75 1.75ZM6.25 1.5C6.25 0.809643 6.80965 0.25 7.5 0.25L8.5 0.25C9.19036 0.25 9.75 0.809643 9.75 1.5V2.5C9.75 3.19036 9.19036 3.75 8.5 3.75H7.5C6.80965 3.75 6.25 3.19036 6.25 2.5V1.5ZM8 4.25C8.41421 4.25 8.75 4.58579 8.75 5V6.25H12.6667C13.2192 6.25 13.7491 6.46949 14.1398 6.86019C14.5305 7.2509 14.75 7.7808 14.75 8.33333V10C14.75 10.4142 14.4142 10.75 14 10.75C13.5858 10.75 13.25 10.4142 13.25 10V8.33333C13.25 8.17862 13.1885 8.03025 13.0791 7.92086C12.9697 7.81146 12.8214 7.75 12.6667 7.75H8.75V10C8.75 10.4142 8.41421 10.75 8 10.75C7.58579 10.75 7.25 10.4142 7.25 10L7.25 7.75H3.33333C3.17862 7.75 3.03025 7.81146 2.92085 7.92085C2.81146 8.03025 2.75 8.17862 2.75 8.33333V10C2.75 10.4142 2.41421 10.75 2 10.75C1.58579 10.75 1.25 10.4142 1.25 10V8.33333C1.25 7.7808 1.46949 7.2509 1.86019 6.86019C2.25089 6.46949 2.7808 6.25 3.33333 6.25H7.25V5C7.25 4.58579 7.58579 4.25 8 4.25ZM1.75 13.75L1.75 14.25H2.25V13.75H1.75ZM0.25 13.5C0.25 12.8096 0.809644 12.25 1.5 12.25H2.5C3.19036 12.25 3.75 12.8096 3.75 13.5V14.5C3.75 15.1904 3.19036 15.75 2.5 15.75H1.5C0.809644 15.75 0.25 15.1904 0.25 14.5L0.25 13.5ZM7.75 13.75V14.25H8.25V13.75H7.75ZM6.25 13.5C6.25 12.8096 6.80965 12.25 7.5 12.25H8.5C9.19036 12.25 9.75 12.8096 9.75 13.5V14.5C9.75 15.1904 9.19036 15.75 8.5 15.75H7.5C6.80965 15.75 6.25 15.1904 6.25 14.5V13.5ZM13.75 13.75V14.25H14.25V13.75H13.75ZM12.25 13.5C12.25 12.8096 12.8096 12.25 13.5 12.25H14.5C15.1904 12.25 15.75 12.8096 15.75 13.5V14.5C15.75 15.1904 15.1904 15.75 14.5 15.75H13.5C12.8096 15.75 12.25 15.1904 12.25 14.5V13.5Z" fill="white" fill-opacity="0.65"/>
</svg>
