<svg width="16" height="16" viewBox="0 0 16 16" fill="none" xmlns="http://www.w3.org/2000/svg">
<path fill-rule="evenodd" clip-rule="evenodd" d="M8.53002 1.62295C8.22749 1.37509 7.79252 1.37509 7.48999 1.62295L2.15666 5.98962C1.96428 6.14706 1.85271 6.38262 1.85271 6.63118V13.3333C1.85271 13.7936 2.22581 14.1667 2.68604 14.1667H6.18604C6.64628 14.1667 7.01937 13.7936 7.01937 13.3333V10.4167H8.99937V13.3333C8.99937 13.7936 9.37247 14.1667 9.83271 14.1667H13.3327C13.793 14.1667 14.166 13.7936 14.166 13.3333V6.63118C14.166 6.38262 14.0545 6.14706 13.8621 5.98962L8.53002 1.62295ZM7.49002 2.9129L3.18604 6.43646V12.8333H5.68604V9.91667C5.68604 9.45643 6.05914 9.08333 6.51937 9.08333H9.49937C9.95961 9.08333 10.3327 9.45643 10.3327 9.91667V12.8333H12.8327V6.43646L8.53002 2.9129C8.22748 2.66504 7.79255 2.66504 7.49002 2.9129Z" fill="white" fill-opacity="0.88"/>
</svg>
