<svg width="16" height="16" viewBox="0 0 16 16" fill="none" xmlns="http://www.w3.org/2000/svg">
<path fill-rule="evenodd" clip-rule="evenodd" d="M8.00004 2.08594C4.73236 2.08594 2.08337 4.73492 2.08337 8.0026C2.08337 11.2703 4.73236 13.9193 8.00004 13.9193C11.2677 13.9193 13.9167 11.2703 13.9167 8.0026C13.9167 4.73492 11.2677 2.08594 8.00004 2.08594ZM0.583374 8.0026C0.583374 3.90649 3.90393 0.585938 8.00004 0.585938C12.0962 0.585938 15.4167 3.90649 15.4167 8.0026C15.4167 12.0987 12.0962 15.4193 8.00004 15.4193C3.90393 15.4193 0.583374 12.0987 0.583374 8.0026ZM11.357 4.64561C11.5579 4.8465 11.6281 5.14364 11.5382 5.41315L10.3356 9.02042C10.2333 9.32728 10.061 9.60611 9.83226 9.83482C9.60354 10.0635 9.32472 10.2359 9.01786 10.3381L5.41059 11.5408C5.14108 11.6306 4.84394 11.5605 4.64305 11.3596C4.44217 11.1587 4.37203 10.8616 4.46188 10.5921L5.66453 6.9848C5.66453 6.98478 5.66452 6.98482 5.66453 6.9848C5.7668 6.67797 5.93913 6.3991 6.16783 6.1704C6.39654 5.94169 6.67535 5.76938 6.98219 5.6671C6.9822 5.6671 6.98217 5.66711 6.98219 5.6671L10.5895 4.46444C10.859 4.37459 11.1562 4.44473 11.357 4.64561ZM9.64073 6.36193L7.45659 7.09011C7.37067 7.11875 7.29253 7.16702 7.22849 7.23106C7.16445 7.2951 7.1162 7.37317 7.08757 7.45909L6.35937 9.64329L8.5435 8.91511C8.62942 8.88647 8.70756 8.8382 8.7716 8.77416C8.83564 8.71012 8.88389 8.63205 8.91253 8.54613L9.64073 6.36193Z" fill="white" fill-opacity="0.65"/>
</svg>
