<svg width="16" height="16" viewBox="0 0 16 16" fill="none" xmlns="http://www.w3.org/2000/svg">
<path fill-rule="evenodd" clip-rule="evenodd" d="M7.66667 0.25C8.08088 0.25 8.41667 0.585786 8.41667 1V2.3015C10.8081 2.63274 12.7006 4.52522 13.0318 6.91667H14.3333C14.7475 6.91667 15.0833 7.25245 15.0833 7.66667C15.0833 8.08088 14.7475 8.41667 14.3333 8.41667H13.0318C12.7006 10.8081 10.8081 12.7006 8.41667 13.0318V14.3333C8.41667 14.7475 8.08088 15.0833 7.66667 15.0833C7.25245 15.0833 6.91667 14.7475 6.91667 14.3333V13.0318C4.52522 12.7006 2.63274 10.8081 2.3015 8.41667H1C0.585786 8.41667 0.25 8.08088 0.25 7.66667C0.25 7.25245 0.585786 6.91667 1 6.91667H2.3015C2.63274 4.52522 4.52522 2.63274 6.91667 2.3015V1C6.91667 0.585786 7.25245 0.25 7.66667 0.25ZM7.66667 3.75C5.50355 3.75 3.75 5.50355 3.75 7.66667C3.75 9.82978 5.50355 11.5833 7.66667 11.5833C9.82978 11.5833 11.5833 9.82978 11.5833 7.66667C11.5833 5.50355 9.82978 3.75 7.66667 3.75ZM7.66667 6.41667C6.97631 6.41667 6.41667 6.97631 6.41667 7.66667C6.41667 8.35702 6.97631 8.91667 7.66667 8.91667C8.35702 8.91667 8.91667 8.35702 8.91667 7.66667C8.91667 6.97631 8.35702 6.41667 7.66667 6.41667ZM4.91667 7.66667C4.91667 6.14788 6.14788 4.91667 7.66667 4.91667C9.18545 4.91667 10.4167 6.14788 10.4167 7.66667C10.4167 9.18545 9.18545 10.4167 7.66667 10.4167C6.14788 10.4167 4.91667 9.18545 4.91667 7.66667Z" fill="white" fill-opacity="0.65"/>
</svg>
