<svg width="14" height="14" viewBox="0 0 14 14" fill="none" xmlns="http://www.w3.org/2000/svg">
<path fill-rule="evenodd" clip-rule="evenodd" d="M2.91667 2.40625C2.63477 2.40625 2.40625 2.63477 2.40625 2.91667V11.0833C2.40625 11.3652 2.63477 11.5938 2.91667 11.5938H4.59375V2.40625H2.91667ZM2.91667 1.09375C1.9099 1.09375 1.09375 1.9099 1.09375 2.91667V11.0833C1.09375 12.0901 1.9099 12.9062 2.91667 12.9062H11.0833C12.0901 12.9062 12.9062 12.0901 12.9062 11.0833V2.91667C12.9062 1.9099 12.0901 1.09375 11.0833 1.09375H2.91667ZM5.90625 2.40625V11.5938H11.0833C11.3652 11.5938 11.5938 11.3652 11.5938 11.0833V2.91667C11.5938 2.63477 11.3652 2.40625 11.0833 2.40625H5.90625ZM9.79737 4.78596C10.0537 5.04224 10.0537 5.45776 9.79737 5.71404L8.51141 7L9.79737 8.28596C10.0537 8.54224 10.0537 8.95776 9.79737 9.21404C9.54109 9.47032 9.12558 9.47032 8.8693 9.21404L7.11929 7.46404C6.86301 7.20776 6.86301 6.79224 7.11929 6.53596L8.8693 4.78596C9.12558 4.52968 9.54109 4.52968 9.79737 4.78596Z" fill="white"/>
</svg>
