<svg width="75" height="22" viewBox="0 0 75 22" fill="none" xmlns="http://www.w3.org/2000/svg">
<path d="M12.0874 5.07454L12.6943 7.7799L16.9257 10.9975H22L14.1609 5.02652L13.0146 0L0 10.9975H5.07433L12.0874 5.07454Z" fill="white"/>
<path d="M9.91264 16.9255L9.28889 14.2201L5.07433 11.0025H0L7.83908 16.9735L8.96858 22L22 11.0025H16.9257L9.91264 16.9255Z" fill="white"/>
<path d="M28.0828 6.3726H35.1018L28 15.6274V18L37.8498 17.9832L38.7603 15.6106L31.6088 15.6274L38.7603 6.33894V4L28.9933 4.01683L28.0828 6.3726ZM50.2656 6.3726L51.1926 4H40.6641V16.1995C40.6641 17.0072 40.8296 17.226 41.1607 17.5625C41.5746 17.899 41.8229 17.9832 42.634 17.9663H50.249L51.1264 15.6274H43.4121V12.0433H46.7561L47.6831 9.65385H43.4286V6.3726H50.2656ZM69.7666 5.19471C69.4355 4.4375 68.8561 4.01683 68.0284 4.01683H66.7868L61.4066 18H64.2209L65.4625 14.7188H70.6109L71.8524 18H74.6667L69.7666 5.19471ZM66.1908 12.3462L68.0946 7.29808L69.9156 12.3462H66.1908ZM64.6182 4H53.0633L52.1528 6.33894H56.7714V17.9663H59.4036V6.33894H63.6911L64.6182 4Z" fill="white"/>
</svg>
