<svg width="16" height="16" viewBox="0 0 16 16" fill="none" xmlns="http://www.w3.org/2000/svg">
<path fill-rule="evenodd" clip-rule="evenodd" d="M7.99992 2.08594C4.73223 2.08594 2.08325 4.73492 2.08325 8.0026C2.08325 11.2703 4.73223 13.9193 7.99992 13.9193C11.2676 13.9193 13.9166 11.2703 13.9166 8.0026C13.9166 4.73492 11.2676 2.08594 7.99992 2.08594ZM0.583252 8.0026C0.583252 3.90649 3.90381 0.585938 7.99992 0.585938C12.096 0.585938 15.4166 3.90649 15.4166 8.0026C15.4166 12.0987 12.096 15.4193 7.99992 15.4193C3.90381 15.4193 0.583252 12.0987 0.583252 8.0026ZM8.15797 5.43434C7.86702 5.38443 7.56779 5.43911 7.31329 5.58868C7.05879 5.73825 6.86544 5.97307 6.76748 6.25154C6.63002 6.64228 6.20184 6.84761 5.81109 6.71016C5.42035 6.5727 5.21502 6.14452 5.35248 5.75378C5.56799 5.14114 5.99337 4.62454 6.55327 4.29548C7.11317 3.96642 7.77146 3.84614 8.41155 3.95593C9.05165 4.06572 9.63223 4.39851 10.0505 4.89534C10.4687 5.39218 10.6976 6.021 10.6966 6.67044L9.94664 6.66932H10.6966C10.6966 6.6697 10.6966 6.67007 10.6966 6.67044C10.6961 7.73463 9.90778 8.42996 9.36267 8.79336C9.06719 8.99034 8.77706 9.13488 8.56375 9.22968C8.45603 9.27756 8.36522 9.31394 8.29958 9.33894C8.2667 9.35147 8.23995 9.36121 8.22036 9.36817L8.1964 9.37656L8.18864 9.37921L8.18586 9.38015L8.18474 9.38053C8.18452 9.3806 8.18382 9.38083 7.95393 8.6912L8.18474 9.38053C7.79178 9.51151 7.36612 9.29945 7.23513 8.9065C7.10434 8.51413 7.31588 8.09007 7.7077 7.9584C7.7081 7.95827 7.70849 7.95814 7.70888 7.95801L7.71785 7.95485C7.72755 7.9514 7.74378 7.94552 7.76558 7.93721C7.80932 7.92055 7.87476 7.89442 7.95454 7.85897C8.11623 7.7871 8.32609 7.68164 8.53062 7.54529C8.98532 7.24215 9.19664 6.93784 9.19664 6.66932V6.66821C9.19708 6.37301 9.09304 6.08718 8.90293 5.86134C8.71282 5.63551 8.44892 5.48424 8.15797 5.43434ZM7.24992 11.3359C7.24992 10.9217 7.5857 10.5859 7.99992 10.5859H8.00659C8.4208 10.5859 8.75659 10.9217 8.75659 11.3359C8.75659 11.7502 8.4208 12.0859 8.00659 12.0859H7.99992C7.5857 12.0859 7.24992 11.7502 7.24992 11.3359Z" fill="black" fill-opacity="0.88"/>
</svg>
