<svg width="16" height="16" viewBox="0 0 16 16" fill="none" xmlns="http://www.w3.org/2000/svg">
<path fill-rule="evenodd" clip-rule="evenodd" d="M5.731 2.32014C6.49397 0.22662 9.50615 0.226618 10.2691 2.32014L10.4225 2.74103C10.5666 3.13652 10.996 3.39141 11.4503 3.30983L11.9007 3.22894C14.0776 2.83803 15.6804 5.36576 14.1625 7.10326L13.8655 7.44326C13.5837 7.76581 13.5837 8.23419 13.8655 8.55674L14.1625 8.89674C15.6804 10.6342 14.0776 13.162 11.9007 12.7711L11.4503 12.6902C10.996 12.6086 10.5666 12.8635 10.4225 13.259L10.2691 13.6799C9.50615 15.7734 6.49397 15.7734 5.731 13.6799L5.57761 13.259C5.43348 12.8635 5.00413 12.6086 4.5498 12.6902L4.09938 12.7711C1.92249 13.162 0.319672 10.6342 1.8376 8.89674L2.13464 8.55674C2.41643 8.23419 2.41643 7.76581 2.13464 7.44326L1.8376 7.10326C0.319673 5.36576 1.92249 2.83803 4.09938 3.22894L4.5498 3.30983C5.00413 3.39141 5.43348 3.13652 5.57761 2.74103L5.731 2.32014ZM8.85979 2.83376C8.57613 2.05541 7.42399 2.05541 7.14033 2.83376L6.98694 3.25465C6.58503 4.35746 5.43379 4.99256 4.28467 4.78621L3.83425 4.70533C2.93772 4.54433 2.45838 5.53392 2.96724 6.11638L3.26427 6.45638C4.03988 7.34418 4.03988 8.65582 3.26427 9.54362L2.96724 9.88362C2.45838 10.4661 2.93772 11.4557 3.83425 11.2947L4.28468 11.2138C5.43379 11.0074 6.58503 11.6425 6.98694 12.7454L7.14033 13.1662C7.42399 13.9446 8.57613 13.9446 8.85979 13.1662L9.01318 12.7454C9.41509 11.6425 10.5663 11.0074 11.7154 11.2138L12.1659 11.2947C13.0624 11.4557 13.5417 10.4661 13.0329 9.88362L12.7358 9.54362C11.9602 8.65582 11.9602 7.34418 12.7358 6.45638L13.0329 6.11638C13.5417 5.53392 13.0624 4.54433 12.1659 4.70533L11.7154 4.78621C10.5663 4.99256 9.41509 4.35745 9.01318 3.25465L8.85979 2.83376Z" fill="black" fill-opacity="0.88"/>
<path fill-rule="evenodd" clip-rule="evenodd" d="M8.00006 6.75C7.3097 6.75 6.75006 7.30964 6.75006 8C6.75006 8.69036 7.3097 9.25 8.00006 9.25C8.69041 9.25 9.25006 8.69036 9.25006 8C9.25006 7.30964 8.69041 6.75 8.00006 6.75ZM5.25006 8C5.25006 6.48122 6.48128 5.25 8.00006 5.25C9.51884 5.25 10.7501 6.48122 10.7501 8C10.7501 9.51878 9.51884 10.75 8.00006 10.75C6.48128 10.75 5.25006 9.51878 5.25006 8Z" fill="black" fill-opacity="0.88"/>
</svg>
